PathFileType	4	(X/Y/Z)	22_2_28_p1_0-321.trc
DataRate	CameraRate	NumFrames	NumMarkers	Units	OrigDataRate	OrigDataStartFrame	OrigNumFrames
59.0	59.0	4	27	m	59.0	0	322
Frame#	Time	RHip			RKnee			RAnkle			RBigToe			RSmallToe			RHeel			LHip			LKnee			LAnkle			LBigToe			LSmallToe			LHeel			Neck			Head			Nose			RShoulder			RElbow			RWrist			RThumb			RIndex			RPinky			LShoulder			LElbow			LWrist			LThumb			LIndex			LPinky			
		X1	Y1	Z1	X2	Y2	Z2	X3	Y3	Z3	X4	Y4	Z4	X5	Y5	Z5	X6	Y6	Z6	X7	Y7	Z7	X8	Y8	Z8	X9	Y9	Z9	X10	Y10	Z10	X11	Y11	Z11	X12	Y12	Z12	X13	Y13	Z13	X14	Y14	Z14	X15	Y15	Z15	X16	Y16	Z16	X17	Y17	Z17	X18	Y18	Z18	X19	Y19	Z19	X20	Y20	Z20	X21	Y21	Z21	X22	Y22	Z22	X23	Y23	Z23	X24	Y24	Z24	X25	Y25	Z25	X26	Y26	Z26	X27	Y27	Z27	
0	0.0	0.2662696638217191	0.6427248393019613	1.0314236245881645	0.2813462125823216	0.7706434211805988	1.4293778762643616	0.29391224225404255	0.9414888600667942	1.8286028940368138	0.24982238087682143	0.710969912360796	1.8784273936817029	0.3083837787757131	0.7553352807400974	1.876451586310787	0.2832391614641826	1.0105104923466128	1.879527184177731	0.042143201616540116	0.6941596923813368	1.0506479111136788	0.08455338709986475	0.7999296608608104	1.4280018104996333	0.09292581137264924	0.9027032913997849	1.819188668911713	0.09745749619661132	0.7440152439699484	1.8817011889332858	0.04983107494398565	0.7882541892384023	1.8851432714658813	0.12573587754098992	0.9715909704012483	1.8708901751415739	0.12085537119334121	0.47108479780118223	0.48728053783655895	0.10821051037194322	0.356719417544061	0.24865986888424604	0.08904670250951457	0.32534171669884254	0.404123708771999	0.26326824586182757	0.4646705750062421	0.5654157258315932	0.32587171610100196	0.4311969313423412	0.8145468017185197	0.20312185772318866	0.4366517003944002	1.0421674351959727	0.08289652095263943	0.41608251307716726	1.1181013697267561	0.08942142236229611	0.43165937466729015	1.140999860493521	0.13305981478230883	0.47336303808415053	1.1609922449215282	-0.041593309385609754	0.4889154487852123	0.5631819859024483	-0.05052688851420676	0.5316469935888914	0.8168506425729337	0.06508910831119671	0.46096467333477675	1.0271725485289438	0.11951253933971125	0.4651093529511861	1.1125550164651992	0.11836207758285447	0.46700417859228865	1.145048866113038	0.11773874614027335	0.4679457962360977	1.141297810209543
1	0.01694915254237288	0.26599156088719006	0.6426481057026777	1.0317346206502505	0.2812908484975963	0.7707240060676507	1.4295303962920336	0.29550474423109474	0.9446072714502831	1.8340213075069989	0.24996843646685024	0.7086907969141614	1.8736184542877825	0.308992386789764	0.7567396760363949	1.881020704375554	0.2876360157374093	1.0113741600332917	1.8799671545997299	0.04205576631691739	0.6937665979771644	1.0504670611662514	0.08278129517038046	0.798512918174578	1.427402474263846	0.0927922053831308	0.9026377072798386	1.8191167658755583	0.10285775779984406	0.7579236935782331	1.8830339427830476	0.0507956399853528	0.7869114084025088	1.8810047471973392	0.1304512062379025	0.9756692764746403	1.868085417831161	0.12085137518782522	0.4710206257953145	0.4873129205057319	0.10808900943366812	0.35612894100513875	0.2487012343181753	0.08508980342956685	0.3256235098453895	0.4043522682986862	0.26349352875073384	0.46490560749528725	0.568992908867466	0.3257730402235089	0.43148804725848827	0.8145993414003977	0.20912566220791146	0.4496147915754157	1.0466984382296456	0.08687289803230062	0.41810685253211216	1.1285786186399394	0.09881557300376592	0.44416878582460145	1.1424918064116385	0.13234565010057942	0.471054415388702	1.157109001015324	-0.040718702341206656	0.4899722835121038	0.5668875294234036	-0.050573811688459584	0.5316943837407794	0.8169696066610728	0.060040776018874434	0.4487861325044255	1.0268163941171435	0.1160218145904261	0.46351309990437484	1.115524203960803	0.11810657336890586	0.4665964268779866	1.1446702806882552	0.11763641281190652	0.46849095735778495	1.1414673272726457
2	0.03389830508474576	0.2657599220397828	0.6438790527565919	1.0357336523154452	0.28151541857708684	0.77002855820877	1.4335902982825095	0.2955384319108881	0.9445355489990519	1.8340207877766217	0.2500477469128227	0.7090957871307856	1.8737556619793145	0.3091908563982451	0.7571359387430681	1.8810711905223205	0.2878489063993717	1.0115882706066626	1.8800332962684918	0.04204874153292402	0.6934682317661711	1.0505032642348926	0.08274475873236792	0.7985178327173323	1.4275074666599363	0.092854720776493	0.9028313368600541	1.8193388755245499	0.1021917770094162	0.7593091713656852	1.8867921669175811	0.04987066089584552	0.7892586975876648	1.8808893669257793	0.13172166515599384	0.9782025432228156	1.8728328875988998	0.12088410657449276	0.470974600221139	0.4872458429303625	0.10376127513023821	0.34556445038802147	0.25083147783538035	0.08512047802329518	0.32552729913370176	0.40436062802513173	0.2635668633723128	0.4649424133654694	0.568924247213033	0.3252912897935432	0.4308633114732766	0.8146975785647229	0.20920571944000632	0.4496255981213037	1.0467537305040564	0.09261859218709859	0.43024783796606136	1.1297118314007992	0.09829481229011124	0.44243851297553616	1.1387995591046172	0.13222289373586749	0.47028853366389584	1.1569393259104999	-0.04120402865023952	0.48836837837434166	0.5633282574105939	-0.05006011097832522	0.5309838661199906	0.8168018001839701	0.05357165892702163	0.46102670176449	1.0244323340611354	0.1166889100154741	0.46170386152215415	1.1027490553200594	0.11820213633657871	0.4663116359416134	1.1444080098428318	0.11641348997231242	0.4670881553131034	1.1348359213344088
3	0.05084745762711865	0.2657739305328845	0.6437875735271815	1.0356917289018601	0.2815468628438594	0.770082675922125	1.433597786811899	0.2955756839394863	0.9444761897807599	1.8340018652093755	0.25000755971528893	0.7095313140969727	1.8738573616098075	0.30911397669521784	0.7571980452651709	1.8810921735251922	0.2876804942367183	1.0109943676174138	1.8798180719592223	0.042281181780084665	0.693642875763925	1.050051006097424	0.08280907131404891	0.7985320895783173	1.4274450560168634	0.0991321881244193	0.9168056016143404	1.8191167901092773	0.09818547429719636	0.7422652044061214	1.8775410099350178	0.05061881689739827	0.7871019110383145	1.8765199614406622	0.1317871927179602	0.9787292540879836	1.873052826844027	0.1180329270168444	0.4826559776458921	0.4830477924144056	0.10797271872028834	0.35630090555801847	0.248671629591807	0.08508189352585645	0.32555850539735826	0.404332989007463	0.26321406957186727	0.4648423018258658	0.5655184089205728	0.3251145457437011	0.4301893490029308	0.8147111453989277	0.20926273009454827	0.44974418225491547	1.0466366616738914	0.09481226140156002	0.4297309895041937	1.129439984039507	0.10433141851919595	0.45463243183778407	1.1404017038157084	0.13526167209523224	0.46870900371586177	1.1529227286004198	-0.040785716231176286	0.4906851666470415	0.5700998479627648	-0.04597389870499643	0.5319015350730558	0.8166468343254251	0.05348302127093623	0.4607425053604006	1.024553785742216	0.11704640158965833	0.4617396669480602	1.105702444811606	0.1229871336453011	0.47744401566178457	1.1457133810847928	0.11677652139245065	0.4669990924860799	1.1379752435839745
